<?xml version="1.0" encoding="utf-8"?>
<!-- Generator: Adobe Illustrator 23.0.3, SVG Export Plug-In . SVG Version: 6.00 Build 0)  -->
<svg version="1.1" id="Layer_1" xmlns="http://www.w3.org/2000/svg" xmlns:xlink="http://www.w3.org/1999/xlink" x="0px" y="0px"
	 viewBox="0 0 1431 658" style="enable-background:new 0 0 1431 658;" xml:space="preserve">
<style type="text/css">
	.st0{fill:#0000FF;}
	.st1{fill:#FFFFFF;}
	.st2{clip-path:url(#SVGID_1_);}
	.st3{fill:#FF0066;}
	.st4{clip-path:url(#SVGID_2_);}
</style>
<rect class="st0" width="1431" height="658"/>
<g>
	<path class="st1" d="M843.6,541.78h13.24V608H843.6V541.78z M889.76,608h-14.19l-18.73-66.22h14.19L889.76,608z M903,608h-13.24
		v-66.22H903V608z"/>
	<path class="st1" d="M939.05,609.42c-12.3,0-24.41-8.99-24.41-26.02c0-16.56,12.11-25.54,24.41-25.54
		c13.72,0,24.88,9.37,24.88,24.41H927.6c0.09,10.12,8.51,14.47,17.97,14.47c9.74,0,18.35-4.16,18.35-14.47
		C963.93,600.43,952.38,609.42,939.05,609.42z M927.6,582.27l20.53-6.43c0-3.22-2.93-5.77-8.8-5.77c-7.28,0-11.73,4.26-11.73,12.11
		V582.27z"/>
	<path class="st1" d="M980.01,559.28v-17.5h13.72v17.5h9.93v11.35h-9.93V608h-13.72v-37.37h-9.93v-11.35H980.01z"/>
	<path class="st1" d="M1016.24,608l-6.91-48.72h13.43l7,48.72H1016.24z M1029.77,608l5.96-48.72h10.5l-6.05,48.72H1029.77z
		 M1052.28,608l-6.05-48.72h11.54l6.15,48.72H1052.28z M1063.92,608l6.72-48.72h12.39l-6.81,48.72H1063.92z"/>
	<path class="st1" d="M1116.04,557.86c14.66,0,25.64,10.88,25.64,25.54c0,15.14-11.54,26.02-25.64,26.02
		c-14.19,0-25.64-10.88-25.64-26.02C1090.4,568.27,1101.85,557.86,1116.04,557.86z M1116.04,596.46c7.47,0,12.68-5.49,12.68-13.06
		c0-7.57-5.2-12.58-12.68-12.58c-7.57,0-12.68,5.01-12.68,12.58C1103.36,590.97,1108.47,596.46,1116.04,596.46z"/>
	<path class="st1" d="M1187.84,559.28v11.35h-20.81V608h-13.72v-48.72H1187.84z"/>
	<path class="st1" d="M1240.44,569.87l-29.42,12.58l29.42,13.62v13.34l-29.42-13.24V608h-13.72v-70.95h13.72v33.11l29.42-12.3
		V569.87z"/>
	<path class="st1" d="M1260.97,535.63c4.26,0,7.66,3.5,7.66,7.85c0,4.35-3.41,7.85-7.66,7.85c-4.16,0-7.57-3.5-7.57-7.85
		C1253.4,539.13,1256.8,535.63,1260.97,535.63z M1267.87,608h-13.72v-48.72h13.72V608z"/>
	<path class="st1" d="M1296.73,559.28V608h-13.72v-48.72H1296.73z M1328.32,608h-13.72v-24.31c0-7.57-1.61-12.87-8.14-12.87
		c-7,0-9.65,5.01-9.74,12.49v0.09v-0.09c0.09-15.14,5.68-25.45,16.65-25.45c11.73,0,14.95,8.99,14.95,23.18V608z"/>
	<path class="st1" d="M1358.03,557.86c6.62,0,12.2,3.12,15.33,8.14l8.04-8.14v11.35h-6.34c0.76,2.08,1.23,4.35,1.23,6.81
		c0,4.16-1.23,7.85-3.31,10.88c5.68,4.35,10.22,11.35,10.22,19.87c0,14.76-10.88,25.35-25.16,25.35c-4.35,0-9.46-1.14-12.96-3.12
		v-39.73c-3.31-3.22-5.3-7.85-5.3-13.24C1339.77,565.24,1347.9,557.86,1358.03,557.86z M1358.31,594.57h-0.28h-0.19
		c-7,0.09-12.77,4.92-12.77,12.2c0,7.38,5.86,12.68,12.96,12.68c7.1,0,11.92-5.3,11.92-12.68
		C1369.94,599.49,1365.31,594.66,1358.31,594.57z M1358.03,582.55c3.69,0,6.24-2.74,6.24-6.43c0-3.78-2.55-6.34-6.24-6.34
		c-3.78,0-6.34,2.55-6.34,6.34C1351.69,579.81,1354.24,582.55,1358.03,582.55z"/>
</g>
<g>
	<path class="st1" d="M1314.86,498.16c0-18.64,6.72-29.8,22.89-29.8c13.91,0,23.37,11.35,23.37,29.8v8.61h19.96v14.19h-66.22V498.16
		z M1327.16,506.77h21.66v-10.97c0-8.7-4.54-13.72-11.07-13.72c-7.19,0-10.6,5.01-10.6,13.72V506.77z"/>
	<path class="st1" d="M1332.37,423.43h11.35v20.81h37.37v13.72h-48.72V423.43z"/>
	<path class="st1" d="M1330.95,393.72c0-14.66,10.88-25.64,25.54-25.64c15.14,0,26.02,11.54,26.02,25.64
		c0,14.19-10.88,25.64-26.02,25.64S1330.95,407.91,1330.95,393.72z M1369.54,393.72c0-7.47-5.49-12.68-13.06-12.68
		c-7.57,0-12.58,5.2-12.58,12.68c0,7.57,5.01,12.68,12.58,12.68C1364.06,406.4,1369.54,401.29,1369.54,393.72z"/>
	<path class="st1" d="M1330.95,341.03c0-6.62,3.12-12.2,8.14-15.33l-8.14-8.04h11.35V324c2.08-0.76,4.35-1.23,6.81-1.23
		c4.16,0,7.85,1.23,10.88,3.31c4.35-5.68,11.35-10.22,19.87-10.22c14.76,0,25.35,10.88,25.35,25.16c0,4.35-1.14,9.46-3.12,12.96
		h-39.73c-3.22,3.31-7.85,5.3-13.24,5.3C1338.33,359.29,1330.95,351.15,1330.95,341.03z M1367.65,340.75v0.28v0.19
		c0.09,7,4.92,12.77,12.2,12.77c7.38,0,12.68-5.87,12.68-12.96c0-7.1-5.3-11.92-12.68-11.92
		C1372.57,329.11,1367.75,333.75,1367.65,340.75z M1355.64,341.03c0-3.69-2.74-6.24-6.43-6.24c-3.78,0-6.34,2.55-6.34,6.24
		c0,3.78,2.55,6.34,6.34,6.34C1352.89,347.37,1355.64,344.81,1355.64,341.03z"/>
	<path class="st1" d="M1332.37,270.84h11.35v20.81h37.37v13.72h-48.72V270.84z"/>
	<path class="st1" d="M1330.95,241.61c0-17.22,9.37-21.1,20.24-21.1h29.89v13.72h-22.42h0.28c18.73,0.19,23.56,8.99,23.56,17.31
		c0,10.31-6.34,13.62-12.58,13.62c-19.49,0-14.66-30.93-22.8-30.93c-3.41,0-5.77,2.84-5.77,8.04c0,6.72,3.97,8.99,6.91,8.99v12.77
		C1337.95,262.99,1330.95,256.55,1330.95,241.61z M1368.98,251.35c1.99,0,4.64-1.23,4.64-5.58c0-8.32-7.19-11.45-14.66-11.54h-0.28
		C1363.49,239.34,1361.69,251.35,1368.98,251.35z"/>
	<path class="st1" d="M1332.37,192.6h48.72v13.72h-48.72V192.6z M1330.95,176.33c0-10.69,8.99-13.43,23.18-13.43h26.96v13.62h-24.31
		c-7.57,0-12.87,1.04-12.87,7.28c0,6.05,5.01,8.8,12.58,8.8C1341.35,192.6,1330.95,187.02,1330.95,176.33z M1330.95,146.63
		c0-10.69,8.99-13.53,23.18-13.53h26.96v13.72h-24.31c-7.57,0-12.87,1.04-12.87,7.28c0,6.05,5.01,8.7,12.58,8.7
		C1341.35,162.8,1330.95,157.32,1330.95,146.63z"/>
</g>
<g>
	<g>
		<g>
			<rect x="540.42" y="151.43" class="st1" width="356.88" height="8.28"/>
		</g>
		<g>
			<rect x="540.42" y="183.12" class="st1" width="356.88" height="8.28"/>
		</g>
		<g>
			<rect x="540.42" y="214.81" class="st1" width="356.88" height="8.28"/>
		</g>
		<g>
			<rect x="540.42" y="246.5" class="st1" width="356.88" height="8.28"/>
		</g>
		<g>
			<rect x="540.42" y="278.19" class="st1" width="356.88" height="8.28"/>
		</g>
		<g>
			<rect x="540.42" y="309.88" class="st1" width="356.88" height="8.28"/>
		</g>
		<g>
			<rect x="540.42" y="341.57" class="st1" width="356.88" height="8.28"/>
		</g>
		<g>
			<rect x="540.42" y="373.26" class="st1" width="356.88" height="8.28"/>
		</g>
		<g>
			<rect x="540.42" y="404.95" class="st1" width="356.88" height="8.28"/>
		</g>
		<g>
			<rect x="540.42" y="436.64" class="st1" width="356.88" height="8.28"/>
		</g>
		<g>
			<rect x="540.42" y="468.33" class="st1" width="356.88" height="8.28"/>
		</g>
		<g>
			<rect x="540.42" y="500.02" class="st1" width="356.88" height="8.28"/>
		</g>
	</g>
	<g>
		<defs>
			
				<ellipse id="SVGID_10_" transform="matrix(0.7071 -0.7071 0.7071 0.7071 -187.7002 506.9348)" cx="518.07" cy="480.04" rx="194.07" ry="194.07"/>
		</defs>
		<clipPath id="SVGID_1_">
			<use xlink:href="#SVGID_10_"  style="overflow:visible;"/>
		</clipPath>
		<g class="st2">
			<rect x="312.74" y="301.6" class="st3" width="411.36" height="8.28"/>
			<rect x="312.74" y="333.29" class="st3" width="411.36" height="8.28"/>
			<rect x="312.74" y="364.98" class="st3" width="411.36" height="8.28"/>
			<rect x="312.74" y="396.68" class="st3" width="411.36" height="8.28"/>
			<rect x="312.74" y="428.37" class="st3" width="411.36" height="8.28"/>
			<rect x="312.74" y="460.06" class="st3" width="411.36" height="8.28"/>
			<rect x="312.74" y="491.75" class="st3" width="411.36" height="8.28"/>
			<rect x="312.74" y="523.44" class="st3" width="411.36" height="8.28"/>
			<rect x="312.74" y="555.13" class="st3" width="411.36" height="8.28"/>
			<rect x="312.74" y="586.82" class="st3" width="411.36" height="8.28"/>
			<rect x="312.74" y="618.51" class="st3" width="411.36" height="8.28"/>
			<rect x="312.74" y="650.2" class="st3" width="411.36" height="8.28"/>
		</g>
	</g>
	<g>
		<defs>
			
				<ellipse id="SVGID_9_" transform="matrix(0.7071 -0.7071 0.7071 0.7071 140.6786 698.0214)" cx="912.93" cy="179.2" rx="194.07" ry="194.07"/>
		</defs>
		<clipPath id="SVGID_2_">
			<use xlink:href="#SVGID_9_"  style="overflow:visible;"/>
		</clipPath>
		<g class="st4">
			<rect x="707.6" y="0.76" class="st3" width="411.36" height="8.28"/>
			<rect x="707.6" y="32.45" class="st3" width="411.36" height="8.28"/>
			<rect x="707.6" y="64.14" class="st3" width="411.36" height="8.28"/>
			<rect x="707.6" y="95.83" class="st3" width="411.36" height="8.28"/>
			<rect x="707.6" y="127.52" class="st3" width="411.36" height="8.28"/>
			<rect x="707.6" y="159.21" class="st3" width="411.36" height="8.28"/>
			<rect x="707.6" y="190.9" class="st3" width="411.36" height="8.28"/>
			<rect x="707.6" y="222.59" class="st3" width="411.36" height="8.28"/>
			<rect x="707.6" y="254.28" class="st3" width="411.36" height="8.28"/>
			<rect x="707.6" y="285.97" class="st3" width="411.36" height="8.28"/>
			<rect x="707.6" y="317.66" class="st3" width="411.36" height="8.28"/>
			<rect x="707.6" y="349.35" class="st3" width="411.36" height="8.28"/>
		</g>
	</g>
</g>
<g>
	<path class="st1" d="M50,414.12l32.45-21.38v16.08L50,430.3V414.12z M116.22,410.15L50,376v-13.91l66.22,33.3V410.15z"/>
	<path class="st1" d="M66.08,340.9c0-14.66,10.88-25.64,25.54-25.64c15.14,0,26.02,11.54,26.02,25.64
		c0,14.19-10.88,25.64-26.02,25.64S66.08,355.09,66.08,340.9z M104.68,340.9c0-7.47-5.49-12.68-13.06-12.68
		c-7.57,0-12.58,5.2-12.58,12.68c0,7.57,5.01,12.68,12.58,12.68C99.19,353.58,104.68,348.47,104.68,340.9z"/>
	<path class="st1" d="M116.22,272.88H93.04c14.66,0.19,24.6,5.77,24.6,16.65c0,11.45-10.5,15.04-20.34,15.04H67.5v-13.72h24.31
		c7.57,0,12.96-2.46,12.96-9.08c0-6.34-4.82-8.7-12.01-8.89H67.5v-13.72h48.72V272.88z"/>
	<path class="st1" d="M67.5,230.31h48.72v13.72H67.5V230.31z M116.22,198.72v13.72H91.91c-7.57,0-12.87,1.61-12.87,8.14
		c0,7,5.01,9.65,12.49,9.74h0.09h-0.09c-15.14-0.09-25.45-5.68-25.45-16.65c0-11.73,8.99-14.95,23.18-14.95H116.22z"/>
	<path class="st1" d="M66.08,169.01c0-6.62,3.12-12.2,8.14-15.33l-8.14-8.04h11.35v6.34c2.08-0.76,4.35-1.23,6.81-1.23
		c4.16,0,7.85,1.23,10.88,3.31c4.35-5.68,11.35-10.22,19.87-10.22c14.76,0,25.35,10.88,25.35,25.16c0,4.35-1.14,9.46-3.12,12.96
		H97.49c-3.22,3.31-7.85,5.3-13.24,5.3C73.46,187.27,66.08,179.14,66.08,169.01z M102.79,168.73v0.28v0.19
		c0.09,7,4.92,12.77,12.2,12.77c7.38,0,12.68-5.87,12.68-12.96c0-7.1-5.3-11.92-12.68-11.92
		C107.71,157.09,102.88,161.73,102.79,168.73z M90.77,169.01c0-3.69-2.74-6.24-6.43-6.24c-3.78,0-6.34,2.55-6.34,6.24
		c0,3.78,2.55,6.34,6.34,6.34C88.03,175.35,90.77,172.8,90.77,169.01z"/>
</g>
<g>
	<path class="st1" d="M117.26,116.6l-5.49-19.2H84.81l-5.49,19.2H66.08L85.1,50.38h13.24L88.41,85.1h19.87l-9.93-34.72h14.19
		l18.92,66.22H117.26z"/>
	<path class="st1" d="M174.02,67.88v11.35h-20.81v37.37h-13.72V67.88H174.02z"/>
	<path class="st1" d="M203.73,66.46c4.54,0,8.89,1.14,12.68,3.12v45.22c-3.69,2.08-8.14,3.22-12.68,3.22
		c-14.19,0-25.64-10.88-25.64-26.02S189.53,66.46,203.73,66.46z M203.73,105.06c7.47,0,12.68-5.49,12.68-13.05
		c0-7.57-5.2-12.58-12.68-12.58c-7.57,0-12.68,5.11-12.68,12.58C191.05,99.58,196.16,105.06,203.73,105.06z"/>
	<path class="st1" d="M244.31,45.65v70.95h-13.72V45.65H244.31z M275.9,116.6h-13.62V92.29c0-7.57-1.61-12.87-8.23-12.87
		c-7,0-9.65,5.01-9.74,12.49v0.09v-0.09c0.09-15.14,5.68-25.45,16.65-25.45c11.73,0,14.95,8.99,14.95,23.18V116.6z"/>
	<path class="st1" d="M296.53,44.23c4.26,0,7.66,3.5,7.66,7.85c0,4.35-3.41,7.85-7.66,7.85c-4.16,0-7.57-3.5-7.57-7.85
		C288.96,47.73,292.36,44.23,296.53,44.23z M303.43,116.6h-13.72V67.88h13.72V116.6z"/>
	<path class="st1" d="M323.3,67.88v-17.5h13.72v17.5h9.93v11.35h-9.93v37.37H323.3V79.24h-9.93V67.88H323.3z"/>
	<path class="st1" d="M377.79,118.02c-12.3,0-24.41-8.99-24.41-26.02c0-16.56,12.11-25.54,24.41-25.54
		c13.72,0,24.88,9.37,24.88,24.41h-36.33c0.09,10.12,8.51,14.47,17.97,14.47c9.74,0,18.35-4.16,18.35-14.47
		C402.67,109.04,391.13,118.02,377.79,118.02z M366.34,90.87l20.53-6.43c0-3.22-2.93-5.77-8.8-5.77c-7.28,0-11.73,4.26-11.73,12.11
		V90.87z"/>
	<path class="st1" d="M436.16,66.46c4.54,0,8.89,1.14,12.68,3.12v45.22c-3.69,2.08-8.14,3.22-12.68,3.22
		c-14.19,0-25.64-10.88-25.64-26.02S421.96,66.46,436.16,66.46z M436.16,105.06c7.47,0,12.68-5.49,12.68-13.05
		c0-7.57-5.2-12.58-12.68-12.58c-7.57,0-12.68,5.11-12.68,12.58C423.48,99.58,428.59,105.06,436.16,105.06z"/>
	<path class="st1" d="M467.75,67.88v-17.5h13.72v17.5h9.93v11.35h-9.93v37.37h-13.72V79.24h-9.93V67.88H467.75z"/>
	<path class="st1" d="M538.89,93.24c2.46,2.18,4.16,5.3,4.16,9.93c0.09,10.69-8.42,14.85-21.19,14.85c-7.66,0-15.51-1.32-19.49-3.97
		V90.12c-1.8-2.18-2.93-5.01-2.93-9.08c0-8.51,6.72-14.57,21.66-14.57c8.89,0,14.85,1.23,17.78,2.65V93.24z M502.37,90.12
		c0.1,9.93,5.87,18.35,19.49,18.35c4.35,0,7.95-1.42,7.95-4.82C529.81,94.56,510.04,99.01,502.37,90.12z M538.89,93.24
		c-0.19-8.89-4.26-17.31-17.31-17.22c-4.92,0-8.89,1.61-8.89,5.3C512.69,88.79,530.57,85.86,538.89,93.24z"/>
</g>
</svg>
